<svg id="visual" viewBox="0 0 900 600" width="900" height="600" xmlns="http://www.w3.org/2000/svg" xmlns:xlink="http://www.w3.org/1999/xlink" version="1.1"><rect x="0" y="0" width="900" height="600" fill="transparent"></rect><defs><linearGradient id="grad1_0" x1="33.3%" y1="100%" x2="100%" y2="0%"><stop offset="20%" stop-color="transparent" stop-opacity="1"></stop><stop offset="80%" stop-color="transparent" stop-opacity="1"></stop></linearGradient></defs><defs><linearGradient id="grad2_0" x1="0%" y1="100%" x2="66.7%" y2="0%"><stop offset="20%" stop-color="transparent" stop-opacity="1"></stop><stop offset="80%" stop-color="transparent" stop-opacity="1"></stop></linearGradient></defs><g transform="translate(900, 600)"><path d="M-378.6 0C-357.9 -59.6 -337.3 -119.3 -308.3 -178C-279.3 -236.7 -242.1 -294.6 -189.3 -327.9C-136.5 -361.1 -68.3 -369.9 0 -378.6L0 0Z" fill="#eab308d0"></path></g><g transform="translate(0, 0)"><path d="M378.6 0C375.7 78.3 372.7 156.6 327.9 189.3C283 222 196.1 209 134.5 233C72.9 256.9 36.4 317.7 0 378.6L0 0Z" fill="#eab308d0"></path></g></svg>